<?xml version="1.0" encoding="utf-8"?>
<!-- Generator: Adobe Illustrator 26.0.3, SVG Export Plug-In . SVG Version: 6.00 Build 0)  -->
<svg version="1.1" id="Layer_1" xmlns="http://www.w3.org/2000/svg" xmlns:xlink="http://www.w3.org/1999/xlink" x="0px" y="0px"
	 viewBox="0 0 1500 250" style="enable-background:new 0 0 1500 250;" xml:space="preserve">
<style type="text/css">
	.st0{fill:#FFFFFF;}
</style>
<g>
	<path class="st0" d="M230.6,184.9h-49.9V121L144,184.9h-32.6L74.8,121v63.9H24.8V50.6h61.4l41.5,76.8l41.5-76.8h61.4V184.9z"/>
	<path class="st0" d="M288.2,89v12.5h92.1v32.6h-92.1v12.5h92.1v38.4h-142V50.6h142V89H288.2z"/>
	<path class="st0" d="M549.2,92.8h-57.6v92.1h-49.9V92.8h-57.6V50.6h165.1V92.8z"/>
	<path class="st0" d="M643.6,160.8h-57.2l-9.2,24.2h-54.9L578,50.6h74.1l55.7,134.4h-54.9L643.6,160.8z M630.6,126.2L615,85.1
		l-15.5,41.1H630.6z"/>
	<path class="st0" d="M845.2,50.6l-55.7,134.4h-74.1L659.8,50.6h54.9l37.8,99.8l37.8-99.8H845.2z"/>
	<path class="st0" d="M898.9,89v12.5H991v32.6h-92.1v12.5H991v38.4H849V50.6h142V89H898.9z"/>
	<path class="st0" d="M1130,146.4l23.8,38.6h-59.1l-18.6-31.5h-29.4v31.5h-49.9V50.6h105.6c30.5,0,51.4,21.5,51.4,51.4
		C1153.8,121.6,1144.8,137.7,1130,146.4z M1046.7,111.2h46.1c5,0,11.1,0,11.1-9.2c0-9.2-6.1-9.2-11.1-9.2h-46.1V111.2z"/>
	<path class="st0" d="M1205.6,137.5c0,6.5,6.1,10.9,37.8,10.9c29.6,0,34-1.9,34-6.9c0-5.8-4.4-6.5-35.9-7.5
		c-60.7-1.9-83.9-11.9-83.9-43.2c0-29.6,29-42.2,82-42.2c52.4,0,82,12.7,82,47h-49.9c0-7.1-11.5-8.6-35.9-8.6
		c-23.4,0-28.2,1.2-28.2,6.3c0,5.2,4.8,5,34,6.1c53,2.1,85.8,5.8,85.8,40.9c0,37-30.7,46.4-85.8,46.4s-85.8-9.4-85.8-49.3H1205.6z"
		/>
	<path class="st0" d="M1383,89v12.5h92.1v32.6H1383v12.5h92.1v38.4h-142V50.6h142V89H1383z"/>
</g>
</svg>
